<svg xmlns="http://www.w3.org/2000/svg" xmlns:xlink="http://www.w3.org/1999/xlink" width="519" zoomAndPan="magnify" viewBox="0 0 389.25 394.499997" height="526" preserveAspectRatio="xMidYMid meet" version="1.0"><defs><clipPath id="4c9516a86f"><path d="M 59 47 L 340 47 L 340 345 L 59 345 Z M 59 47 " clip-rule="nonzero"/></clipPath><clipPath id="7c87b63686"><path d="M 106.199219 0.132812 L 388.8125 103.488281 L 282.625 393.835938 L 0.0117188 290.476562 Z M 106.199219 0.132812 " clip-rule="nonzero"/></clipPath><clipPath id="53521a93d8"><path d="M 106.199219 0.132812 L 388.8125 103.488281 L 282.625 393.835938 L 0.0117188 290.476562 Z M 106.199219 0.132812 " clip-rule="nonzero"/></clipPath></defs><g clip-path="url(#4c9516a86f)"><g clip-path="url(#7c87b63686)"><g clip-path="url(#53521a93d8)"><path fill="#ffffff" d="M 153.40625 332.398438 C 156.757812 333.625 158.480469 337.335938 157.253906 340.683594 C 156.132812 343.757812 152.921875 345.460938 149.8125 344.777344 L 148.96875 344.53125 L 132.792969 338.617188 C 129.441406 337.390625 127.71875 333.683594 128.945312 330.332031 C 130.066406 327.261719 133.277344 325.558594 136.386719 326.238281 L 137.230469 326.484375 Z M 175.5 322.140625 C 178.851562 323.363281 180.574219 327.074219 179.347656 330.425781 C 178.226562 333.496094 175.015625 335.199219 171.90625 334.519531 L 171.0625 334.273438 L 122.53125 316.523438 C 119.179688 315.296875 117.457031 311.589844 118.683594 308.238281 C 119.808594 305.167969 123.019531 303.464844 126.125 304.144531 L 126.96875 304.390625 Z M 189.503906 308.921875 C 192.855469 310.144531 194.578125 313.855469 193.351562 317.207031 C 192.230469 320.277344 189.019531 321.980469 185.910156 321.300781 L 185.066406 321.054688 L 120.359375 297.386719 C 117.007812 296.164062 115.285156 292.453125 116.511719 289.101562 C 117.636719 286.03125 120.84375 284.328125 123.953125 285.007812 L 124.796875 285.253906 Z M 225.1875 111.050781 C 268.746094 126.980469 291.140625 175.203125 275.210938 218.757812 C 268.410156 237.351562 249.972656 253.398438 220.273438 267.304688 C 214.136719 270.179688 209.269531 275.167969 206.546875 281.324219 L 205.855469 283.03125 L 200.746094 296.988281 C 198.832031 302.21875 193.28125 305.066406 187.992188 303.722656 L 186.941406 303.398438 L 130.320312 282.691406 C 125.085938 280.773438 122.234375 275.222656 123.582031 269.933594 L 123.90625 268.882812 L 129.007812 254.9375 C 131.546875 247.992188 131.234375 240.328125 128.140625 233.613281 C 114.417969 203.824219 110.683594 179.667969 117.484375 161.074219 C 133.414062 117.515625 181.632812 95.121094 225.1875 111.050781 Z M 99.707031 229.167969 C 101.082031 232.132812 100.019531 235.609375 97.339844 237.324219 L 96.570312 237.746094 L 73.132812 248.628906 C 69.898438 250.132812 66.058594 248.726562 64.554688 245.492188 C 63.179688 242.527344 64.242188 239.050781 66.921875 237.335938 L 67.691406 236.914062 L 91.125 226.03125 C 94.363281 224.527344 98.203125 225.933594 99.707031 229.167969 Z M 253.707031 284.875 L 254.132812 285.644531 L 265.015625 309.078125 C 266.515625 312.3125 265.113281 316.15625 261.878906 317.65625 C 258.910156 319.035156 255.4375 317.96875 253.71875 315.289062 L 253.296875 314.519531 L 242.414062 291.085938 C 240.914062 287.851562 242.316406 284.007812 245.550781 282.507812 C 248.519531 281.128906 251.992188 282.195312 253.707031 284.875 Z M 220.75 123.183594 C 183.898438 109.707031 143.09375 128.65625 129.617188 165.507812 C 124.207031 180.300781 127.445312 201.222656 139.875 228.207031 C 144.09375 237.367188 144.773438 247.738281 141.828125 257.332031 L 141.140625 259.375 L 136.773438 271.292969 L 189.355469 290.523438 L 193.726562 278.59375 C 196.941406 269.800781 203.058594 262.421875 211.003906 257.628906 L 212.867188 256.570312 L 214.792969 255.605469 C 241.699219 243.007812 257.667969 229.109375 263.078125 214.320312 C 276.554688 177.464844 257.605469 136.664062 220.75 123.183594 Z M 92.320312 136.914062 C 95.671875 138.136719 97.394531 141.847656 96.171875 145.199219 C 95.046875 148.269531 91.835938 149.972656 88.726562 149.289062 L 87.886719 149.046875 L 63.621094 140.171875 C 60.269531 138.945312 58.546875 135.234375 59.769531 131.886719 C 60.894531 128.8125 64.105469 127.109375 67.214844 127.792969 L 68.054688 128.039062 Z M 334.980469 225.65625 C 338.328125 226.882812 340.050781 230.59375 338.828125 233.941406 C 337.703125 237.015625 334.492188 238.71875 331.386719 238.035156 L 330.542969 237.789062 L 306.277344 228.914062 C 302.925781 227.691406 301.203125 223.980469 302.429688 220.628906 C 303.550781 217.558594 306.761719 215.855469 309.871094 216.539062 L 310.714844 216.78125 Z M 224.402344 138.273438 C 250.089844 147.667969 263.296875 176.105469 253.902344 201.792969 C 252.675781 205.144531 248.96875 206.867188 245.617188 205.640625 C 242.265625 204.417969 240.542969 200.707031 241.769531 197.355469 C 248.714844 178.371094 238.953125 157.351562 219.964844 150.40625 C 216.617188 149.183594 214.894531 145.472656 216.117188 142.121094 C 217.34375 138.773438 221.054688 137.050781 224.402344 138.273438 Z M 144.878906 50.539062 L 145.300781 51.308594 L 156.183594 74.742188 C 157.6875 77.976562 156.28125 81.820312 153.046875 83.320312 C 150.078125 84.699219 146.605469 83.632812 144.890625 80.953125 L 144.464844 80.183594 L 133.582031 56.75 C 132.082031 53.515625 133.484375 49.671875 136.722656 48.171875 C 139.6875 46.792969 143.160156 47.859375 144.878906 50.539062 Z M 334.042969 120.335938 C 335.417969 123.300781 334.355469 126.777344 331.675781 128.492188 L 330.90625 128.914062 L 307.472656 139.796875 C 304.234375 141.300781 300.394531 139.894531 298.890625 136.660156 C 297.515625 133.695312 298.582031 130.21875 301.257812 128.503906 L 302.03125 128.082031 L 325.464844 117.199219 C 328.699219 115.695312 332.539062 117.101562 334.042969 120.335938 Z M 247.371094 51.476562 C 250.441406 52.597656 252.144531 55.808594 251.460938 58.917969 L 251.21875 59.761719 L 242.34375 84.027344 C 241.117188 87.375 237.40625 89.097656 234.058594 87.875 C 230.988281 86.75 229.28125 83.539062 229.964844 80.433594 L 230.210938 79.589844 L 239.085938 55.324219 C 240.308594 51.972656 244.019531 50.25 247.371094 51.476562 Z M 247.371094 51.476562 " fill-opacity="1" fill-rule="nonzero"/><path fill="#ffffff" d="M 153.40625 332.398438 C 156.757812 333.625 158.480469 337.335938 157.253906 340.683594 C 156.132812 343.757812 152.921875 345.460938 149.8125 344.777344 L 148.96875 344.53125 L 132.792969 338.617188 C 129.441406 337.390625 127.71875 333.683594 128.945312 330.332031 C 130.066406 327.261719 133.277344 325.558594 136.386719 326.238281 L 137.230469 326.484375 Z M 175.5 322.140625 C 178.851562 323.363281 180.574219 327.074219 179.347656 330.425781 C 178.226562 333.496094 175.015625 335.199219 171.90625 334.519531 L 171.0625 334.273438 L 122.53125 316.523438 C 119.179688 315.296875 117.457031 311.589844 118.683594 308.238281 C 119.808594 305.167969 123.019531 303.464844 126.125 304.144531 L 126.96875 304.390625 Z M 189.503906 308.921875 C 192.855469 310.144531 194.578125 313.855469 193.351562 317.207031 C 192.230469 320.277344 189.019531 321.980469 185.910156 321.300781 L 185.066406 321.054688 L 120.359375 297.386719 C 117.007812 296.164062 115.285156 292.453125 116.511719 289.101562 C 117.636719 286.03125 120.84375 284.328125 123.953125 285.007812 L 124.796875 285.253906 Z M 225.1875 111.050781 C 268.746094 126.980469 291.140625 175.203125 275.210938 218.757812 C 268.410156 237.351562 249.972656 253.398438 220.273438 267.304688 C 214.136719 270.179688 209.269531 275.167969 206.546875 281.324219 L 205.855469 283.03125 L 200.746094 296.988281 C 198.832031 302.21875 193.28125 305.066406 187.992188 303.722656 L 186.941406 303.398438 L 130.320312 282.691406 C 125.085938 280.773438 122.234375 275.222656 123.582031 269.933594 L 123.90625 268.882812 L 129.007812 254.9375 C 131.546875 247.992188 131.234375 240.328125 128.140625 233.613281 C 114.417969 203.824219 110.683594 179.667969 117.484375 161.074219 C 133.414062 117.515625 181.632812 95.121094 225.1875 111.050781 Z M 99.707031 229.167969 C 101.082031 232.132812 100.019531 235.609375 97.339844 237.324219 L 96.570312 237.746094 L 73.132812 248.628906 C 69.898438 250.132812 66.058594 248.726562 64.554688 245.492188 C 63.179688 242.527344 64.242188 239.050781 66.921875 237.335938 L 67.691406 236.914062 L 91.125 226.03125 C 94.363281 224.527344 98.203125 225.933594 99.707031 229.167969 Z M 253.707031 284.875 L 254.132812 285.644531 L 265.015625 309.078125 C 266.515625 312.3125 265.113281 316.15625 261.878906 317.65625 C 258.910156 319.035156 255.4375 317.96875 253.71875 315.289062 L 253.296875 314.519531 L 242.414062 291.085938 C 240.914062 287.851562 242.316406 284.007812 245.550781 282.507812 C 248.519531 281.128906 251.992188 282.195312 253.707031 284.875 Z M 220.75 123.183594 C 183.898438 109.707031 143.09375 128.65625 129.617188 165.507812 C 124.207031 180.300781 127.445312 201.222656 139.875 228.207031 C 144.09375 237.367188 144.773438 247.738281 141.828125 257.332031 L 141.140625 259.375 L 136.773438 271.292969 L 189.355469 290.523438 L 193.726562 278.59375 C 196.941406 269.800781 203.058594 262.421875 211.003906 257.628906 L 212.867188 256.570312 L 214.792969 255.605469 C 241.699219 243.007812 257.667969 229.109375 263.078125 214.320312 C 276.554688 177.464844 257.605469 136.664062 220.75 123.183594 Z M 92.320312 136.914062 C 95.671875 138.136719 97.394531 141.847656 96.171875 145.199219 C 95.046875 148.269531 91.835938 149.972656 88.726562 149.289062 L 87.886719 149.046875 L 63.621094 140.171875 C 60.269531 138.945312 58.546875 135.234375 59.769531 131.886719 C 60.894531 128.8125 64.105469 127.109375 67.214844 127.792969 L 68.054688 128.039062 Z M 334.980469 225.65625 C 338.328125 226.882812 340.050781 230.59375 338.828125 233.941406 C 337.703125 237.015625 334.492188 238.71875 331.386719 238.035156 L 330.542969 237.789062 L 306.277344 228.914062 C 302.925781 227.691406 301.203125 223.980469 302.429688 220.628906 C 303.550781 217.558594 306.761719 215.855469 309.871094 216.539062 L 310.714844 216.78125 Z M 224.402344 138.273438 C 250.089844 147.667969 263.296875 176.105469 253.902344 201.792969 C 252.675781 205.144531 248.96875 206.867188 245.617188 205.640625 C 242.265625 204.417969 240.542969 200.707031 241.769531 197.355469 C 248.714844 178.371094 238.953125 157.351562 219.964844 150.40625 C 216.617188 149.183594 214.894531 145.472656 216.117188 142.121094 C 217.34375 138.773438 221.054688 137.050781 224.402344 138.273438 Z M 144.878906 50.539062 L 145.300781 51.308594 L 156.183594 74.742188 C 157.6875 77.976562 156.28125 81.820312 153.046875 83.320312 C 150.078125 84.699219 146.605469 83.632812 144.890625 80.953125 L 144.464844 80.183594 L 133.582031 56.75 C 132.082031 53.515625 133.484375 49.671875 136.722656 48.171875 C 139.6875 46.792969 143.160156 47.859375 144.878906 50.539062 Z M 334.042969 120.335938 C 335.417969 123.300781 334.355469 126.777344 331.675781 128.492188 L 330.90625 128.914062 L 307.472656 139.796875 C 304.234375 141.300781 300.394531 139.894531 298.890625 136.660156 C 297.515625 133.695312 298.582031 130.21875 301.257812 128.503906 L 302.03125 128.082031 L 325.464844 117.199219 C 328.699219 115.695312 332.539062 117.101562 334.042969 120.335938 Z M 247.371094 51.476562 C 250.441406 52.597656 252.144531 55.808594 251.460938 58.917969 L 251.21875 59.761719 L 242.34375 84.027344 C 241.117188 87.375 237.40625 89.097656 234.058594 87.875 C 230.988281 86.75 229.28125 83.539062 229.964844 80.433594 L 230.210938 79.589844 L 239.085938 55.324219 C 240.308594 51.972656 244.019531 50.25 247.371094 51.476562 Z M 247.371094 51.476562 " fill-opacity="1" fill-rule="nonzero"/></g></g></g></svg>