<svg xmlns="http://www.w3.org/2000/svg" xmlns:xlink="http://www.w3.org/1999/xlink" width="448" zoomAndPan="magnify" viewBox="0 0 336 335.999987" height="448" preserveAspectRatio="xMidYMid meet" version="1.0"><path fill="#1fcdff" d="M 329.1875 0.1875 C 309.242188 0.1875 286.042969 4.515625 261.777344 12.636719 C 261.757812 12.644531 261.746094 12.636719 261.726562 12.644531 C 261.714844 12.648438 261.707031 12.65625 261.695312 12.664062 C 259.730469 13.320312 257.761719 13.957031 255.785156 14.667969 C 255.59375 14.738281 255.390625 14.820312 255.199219 14.917969 C 250.300781 16.683594 245.488281 18.597656 240.742188 20.597656 C 240.71875 20.601562 240.691406 20.621094 240.667969 20.628906 C 211.253906 33.015625 185.136719 49.519531 167.523438 67.132812 L 133.210938 101.441406 L 104.585938 101.441406 C 90.808594 101.441406 77.855469 106.808594 68.105469 116.554688 L 33.738281 150.921875 C 31.875 152.785156 31.332031 155.59375 32.371094 158.015625 C 33.382812 160.386719 35.722656 161.921875 38.292969 161.921875 C 38.34375 161.921875 38.394531 161.921875 38.449219 161.921875 L 93.199219 160.601562 C 90.578125 174.953125 92.160156 189.867188 98.304688 203.289062 C 79.664062 222.421875 65.332031 247.660156 77.011719 259.335938 C 79.9375 262.269531 83.71875 263.558594 88.050781 263.558594 C 100.992188 263.558594 118.769531 251.964844 133.117188 237.972656 C 142.402344 242.207031 152.359375 244.40625 162.398438 244.40625 C 166.863281 244.40625 171.332031 243.945312 175.753906 243.140625 L 174.429688 297.90625 C 174.367188 300.542969 175.914062 302.945312 178.335938 303.984375 C 179.15625 304.332031 180.019531 304.503906 180.875 304.503906 C 182.550781 304.503906 184.199219 303.847656 185.429688 302.617188 L 219.800781 268.25 C 229.542969 258.5 234.910156 245.546875 234.910156 231.765625 L 234.910156 203.121094 L 268.964844 169.03125 C 286.699219 151.347656 303.253906 125.058594 315.628906 95.441406 C 315.628906 95.433594 315.632812 95.433594 315.632812 95.429688 C 317.703125 90.480469 319.679688 85.464844 321.5 80.355469 C 322.175781 78.453125 322.78125 76.574219 323.414062 74.683594 C 323.4375 74.632812 323.476562 74.585938 323.503906 74.535156 C 323.535156 74.457031 323.515625 74.375 323.546875 74.292969 C 331.65625 49.929688 335.914062 26.636719 335.8125 6.597656 C 335.78125 3.046875 332.730469 0.1875 329.1875 0.1875 Z M 96.796875 147.621094 L 54.234375 148.648438 L 77.210938 125.667969 C 84.523438 118.359375 94.242188 114.332031 104.578125 114.332031 L 120.316406 114.332031 L 114.296875 120.347656 C 106.382812 128.277344 100.539062 137.640625 96.796875 147.621094 Z M 121.117188 184.484375 C 116.902344 187.171875 112.617188 190.324219 108.371094 193.917969 C 104.386719 183.074219 103.804688 171.273438 106.4375 159.996094 C 110.238281 169.257812 116.132812 178.015625 121.117188 184.484375 Z M 125.34375 227.585938 C 105.042969 247.890625 88.261719 252.355469 86.125 250.222656 C 83.996094 248.089844 88.46875 231.296875 108.769531 211.003906 C 117.734375 202.039062 127.335938 194.917969 135.796875 190.953125 C 140.785156 188.621094 144.199219 187.988281 146.132812 187.988281 C 147.171875 187.988281 147.785156 188.171875 147.984375 188.371094 C 148.550781 188.9375 148.988281 192.882812 145.398438 200.554688 C 141.429688 209.023438 134.300781 218.621094 125.34375 227.585938 Z M 142.429688 227.976562 C 146.03125 223.722656 149.195312 219.425781 151.882812 215.199219 C 158.460938 220.246094 167.285156 226.089844 176.621094 229.847656 C 165.273438 232.539062 153.363281 231.980469 142.429688 227.976562 Z M 222.015625 231.761719 C 222.015625 242.097656 217.988281 251.816406 210.679688 259.128906 L 187.707031 282.109375 L 188.738281 239.511719 C 198.734375 235.769531 208.109375 229.941406 216.035156 222.015625 L 222.023438 216.023438 L 222.023438 231.761719 Z M 259.84375 159.910156 L 206.917969 212.898438 C 204.585938 215.230469 202.097656 217.335938 199.5 219.246094 C 199.488281 219.25 199.46875 219.25 199.453125 219.265625 C 191.761719 223.710938 175.4375 217.390625 158.054688 203.617188 C 163.65625 190.148438 160.761719 182.917969 157.089844 179.25 C 153.429688 175.578125 146.199219 172.671875 132.703125 178.296875 C 119.703125 161.953125 113.195312 146.242188 116.257812 138.039062 C 118.371094 135.023438 120.742188 132.136719 123.417969 129.460938 L 140.429688 112.449219 C 140.4375 112.441406 140.4375 112.441406 140.441406 112.4375 L 176.636719 76.242188 C 191.464844 61.414062 212.921875 47.367188 237.386719 36.148438 C 239.96875 48.785156 248.199219 62.832031 260.804688 75.425781 C 273.410156 88.011719 287.464844 96.207031 300.097656 98.773438 C 288.882812 123.421875 274.785156 145.011719 259.84375 159.910156 Z M 305.296875 86.625 C 294.8125 85.414062 281.453125 77.824219 269.917969 66.304688 C 258.375 54.785156 250.757812 41.386719 249.535156 30.925781 C 252.667969 29.664062 255.824219 28.433594 259.019531 27.273438 C 259.015625 27.363281 259.039062 27.445312 259.03125 27.53125 C 258.71875 34.03125 264.109375 46.773438 276.753906 59.417969 C 289.46875 72.132812 302.273438 77.488281 308.804688 77.132812 C 308.84375 77.132812 308.886719 77.140625 308.925781 77.140625 C 307.773438 80.335938 306.554688 83.492188 305.296875 86.625 Z M 313.050781 64.507812 C 311.402344 64.308594 309.738281 64.167969 308.0625 64.261719 C 305.9375 64.535156 296.628906 61.054688 285.835938 50.261719 C 275.15625 39.589844 271.894531 30.308594 271.910156 28.234375 C 272.011719 26.503906 271.882812 24.792969 271.671875 23.082031 C 289.746094 17.488281 307.378906 14.003906 322.78125 13.242188 C 322.078125 28.632812 318.632812 46.339844 313.050781 64.507812 Z M 313.050781 64.507812 " fill-opacity="1" fill-rule="nonzero"/><path fill="#1fcdff" d="M 211.679688 81.652344 C 199.996094 81.652344 189.015625 86.199219 180.757812 94.457031 C 172.496094 102.710938 167.953125 113.691406 167.953125 125.375 C 167.953125 137.058594 172.496094 148.042969 180.757812 156.296875 C 189.015625 164.558594 199.996094 169.101562 211.679688 169.101562 C 223.363281 169.101562 234.34375 164.550781 242.601562 156.296875 C 250.863281 148.035156 255.40625 137.058594 255.40625 125.375 C 255.40625 113.691406 250.863281 102.710938 242.601562 94.457031 C 234.34375 86.199219 223.363281 81.652344 211.679688 81.652344 Z M 233.488281 147.191406 C 227.667969 153.015625 219.921875 156.21875 211.679688 156.21875 C 203.4375 156.21875 195.699219 153.007812 189.871094 147.191406 C 184.046875 141.363281 180.84375 133.625 180.84375 125.382812 C 180.84375 117.148438 184.046875 109.398438 189.871094 103.574219 C 195.691406 97.75 203.4375 94.546875 211.679688 94.546875 C 219.921875 94.546875 227.660156 97.753906 233.488281 103.574219 C 239.3125 109.398438 242.515625 117.140625 242.515625 125.382812 C 242.515625 133.617188 239.3125 141.363281 233.488281 147.191406 Z M 233.488281 147.191406 " fill-opacity="1" fill-rule="nonzero"/><path fill="#1fcdff" d="M 11.59375 205.996094 L 38.53125 179.058594 C 41.050781 176.539062 41.050781 172.464844 38.53125 169.945312 C 36.011719 167.425781 31.9375 167.425781 29.417969 169.945312 L 2.480469 196.882812 C -0.0390625 199.402344 -0.0390625 203.476562 2.480469 205.996094 C 3.738281 207.253906 5.386719 207.882812 7.039062 207.882812 C 8.6875 207.882812 10.335938 207.253906 11.59375 205.996094 Z M 11.59375 205.996094 " fill-opacity="1" fill-rule="nonzero"/><path fill="#1fcdff" d="M 71.597656 264.570312 C 69.078125 262.050781 65.003906 262.050781 62.484375 264.570312 L 20.796875 306.25 C 18.277344 308.769531 18.277344 312.84375 20.796875 315.363281 C 22.054688 316.621094 23.703125 317.253906 25.351562 317.253906 C 27.003906 317.253906 28.652344 316.621094 29.910156 315.363281 L 71.597656 273.679688 C 74.109375 271.167969 74.109375 267.089844 71.597656 264.570312 Z M 71.597656 264.570312 " fill-opacity="1" fill-rule="nonzero"/><path fill="#1fcdff" d="M 52.746094 216.847656 C 50.226562 214.328125 46.15625 214.328125 43.636719 216.847656 L 8.351562 252.132812 C 5.832031 254.652344 5.832031 258.722656 8.351562 261.242188 C 9.609375 262.5 11.257812 263.132812 12.90625 263.132812 C 14.558594 263.132812 16.207031 262.5 17.464844 261.242188 L 52.746094 225.960938 C 55.265625 223.445312 55.265625 219.367188 52.746094 216.847656 Z M 52.746094 216.847656 " fill-opacity="1" fill-rule="nonzero"/><path fill="#1fcdff" d="M 157.109375 297.636719 L 130.171875 324.574219 C 127.652344 327.09375 127.652344 331.164062 130.171875 333.683594 C 131.425781 334.941406 133.078125 335.574219 134.726562 335.574219 C 136.375 335.574219 138.027344 334.941406 139.28125 333.683594 L 166.222656 306.746094 C 168.742188 304.226562 168.742188 300.15625 166.222656 297.636719 C 163.699219 295.117188 159.628906 295.117188 157.109375 297.636719 Z M 157.109375 297.636719 " fill-opacity="1" fill-rule="nonzero"/><path fill="#1fcdff" d="M 110.207031 283.417969 L 74.921875 318.703125 C 72.402344 321.222656 72.402344 325.292969 74.921875 327.8125 C 76.179688 329.070312 77.828125 329.703125 79.480469 329.703125 C 81.128906 329.703125 82.777344 329.070312 84.035156 327.8125 L 119.316406 292.53125 C 121.839844 290.011719 121.839844 285.9375 119.316406 283.417969 C 116.796875 280.898438 112.726562 280.898438 110.207031 283.417969 Z M 110.207031 283.417969 " fill-opacity="1" fill-rule="nonzero"/><path fill="#1fcdff" d="M 329.1875 0.1875 C 309.242188 0.1875 286.042969 4.515625 261.777344 12.636719 C 261.757812 12.644531 261.746094 12.636719 261.726562 12.644531 C 261.714844 12.648438 261.707031 12.65625 261.695312 12.664062 C 259.730469 13.320312 257.761719 13.957031 255.785156 14.667969 C 255.59375 14.738281 255.390625 14.820312 255.199219 14.917969 C 250.300781 16.683594 245.488281 18.597656 240.742188 20.597656 C 240.71875 20.601562 240.691406 20.621094 240.667969 20.628906 C 211.253906 33.015625 185.136719 49.519531 167.523438 67.132812 L 133.210938 101.441406 L 104.585938 101.441406 C 90.808594 101.441406 77.855469 106.808594 68.105469 116.554688 L 33.738281 150.921875 C 31.875 152.785156 31.332031 155.59375 32.371094 158.015625 C 33.382812 160.386719 35.722656 161.921875 38.292969 161.921875 C 38.34375 161.921875 38.394531 161.921875 38.449219 161.921875 L 93.199219 160.601562 C 90.578125 174.953125 92.160156 189.867188 98.304688 203.289062 C 79.664062 222.421875 65.332031 247.660156 77.011719 259.335938 C 79.9375 262.269531 83.71875 263.558594 88.050781 263.558594 C 100.992188 263.558594 118.769531 251.964844 133.117188 237.972656 C 142.402344 242.207031 152.359375 244.40625 162.398438 244.40625 C 166.863281 244.40625 171.332031 243.945312 175.753906 243.140625 L 174.429688 297.90625 C 174.367188 300.542969 175.914062 302.945312 178.335938 303.984375 C 179.15625 304.332031 180.019531 304.503906 180.875 304.503906 C 182.550781 304.503906 184.199219 303.847656 185.429688 302.617188 L 219.800781 268.25 C 229.542969 258.5 234.910156 245.546875 234.910156 231.765625 L 234.910156 203.121094 L 268.964844 169.03125 C 286.699219 151.347656 303.253906 125.058594 315.628906 95.441406 C 315.628906 95.433594 315.632812 95.433594 315.632812 95.429688 C 317.703125 90.480469 319.679688 85.464844 321.5 80.355469 C 322.175781 78.453125 322.78125 76.574219 323.414062 74.683594 C 323.4375 74.632812 323.476562 74.585938 323.503906 74.535156 C 323.535156 74.457031 323.515625 74.375 323.546875 74.292969 C 331.65625 49.929688 335.914062 26.636719 335.8125 6.597656 C 335.78125 3.046875 332.730469 0.1875 329.1875 0.1875 Z M 96.796875 147.621094 L 54.234375 148.648438 L 77.210938 125.667969 C 84.523438 118.359375 94.242188 114.332031 104.578125 114.332031 L 120.316406 114.332031 L 114.296875 120.347656 C 106.382812 128.277344 100.539062 137.640625 96.796875 147.621094 Z M 121.117188 184.484375 C 116.902344 187.171875 112.617188 190.324219 108.371094 193.917969 C 104.386719 183.074219 103.804688 171.273438 106.4375 159.996094 C 110.238281 169.257812 116.132812 178.015625 121.117188 184.484375 Z M 125.34375 227.585938 C 105.042969 247.890625 88.261719 252.355469 86.125 250.222656 C 83.996094 248.089844 88.46875 231.296875 108.769531 211.003906 C 117.734375 202.039062 127.335938 194.917969 135.796875 190.953125 C 140.785156 188.621094 144.199219 187.988281 146.132812 187.988281 C 147.171875 187.988281 147.785156 188.171875 147.984375 188.371094 C 148.550781 188.9375 148.988281 192.882812 145.398438 200.554688 C 141.429688 209.023438 134.300781 218.621094 125.34375 227.585938 Z M 142.429688 227.976562 C 146.03125 223.722656 149.195312 219.425781 151.882812 215.199219 C 158.460938 220.246094 167.285156 226.089844 176.621094 229.847656 C 165.273438 232.539062 153.363281 231.980469 142.429688 227.976562 Z M 222.015625 231.761719 C 222.015625 242.097656 217.988281 251.816406 210.679688 259.128906 L 187.707031 282.109375 L 188.738281 239.511719 C 198.734375 235.769531 208.109375 229.941406 216.035156 222.015625 L 222.023438 216.023438 L 222.023438 231.761719 Z M 259.84375 159.910156 L 206.917969 212.898438 C 204.585938 215.230469 202.097656 217.335938 199.5 219.246094 C 199.488281 219.25 199.46875 219.25 199.453125 219.265625 C 191.761719 223.710938 175.4375 217.390625 158.054688 203.617188 C 163.65625 190.148438 160.761719 182.917969 157.089844 179.25 C 153.429688 175.578125 146.199219 172.671875 132.703125 178.296875 C 119.703125 161.953125 113.195312 146.242188 116.257812 138.039062 C 118.371094 135.023438 120.742188 132.136719 123.417969 129.460938 L 140.429688 112.449219 C 140.4375 112.441406 140.4375 112.441406 140.441406 112.4375 L 176.636719 76.242188 C 191.464844 61.414062 212.921875 47.367188 237.386719 36.148438 C 239.96875 48.785156 248.199219 62.832031 260.804688 75.425781 C 273.410156 88.011719 287.464844 96.207031 300.097656 98.773438 C 288.882812 123.421875 274.785156 145.011719 259.84375 159.910156 Z M 305.296875 86.625 C 294.8125 85.414062 281.453125 77.824219 269.917969 66.304688 C 258.375 54.785156 250.757812 41.386719 249.535156 30.925781 C 252.667969 29.664062 255.824219 28.433594 259.019531 27.273438 C 259.015625 27.363281 259.039062 27.445312 259.03125 27.53125 C 258.71875 34.03125 264.109375 46.773438 276.753906 59.417969 C 289.46875 72.132812 302.273438 77.488281 308.804688 77.132812 C 308.84375 77.132812 308.886719 77.140625 308.925781 77.140625 C 307.773438 80.335938 306.554688 83.492188 305.296875 86.625 Z M 313.050781 64.507812 C 311.402344 64.308594 309.738281 64.167969 308.0625 64.261719 C 305.9375 64.535156 296.628906 61.054688 285.835938 50.261719 C 275.15625 39.589844 271.894531 30.308594 271.910156 28.234375 C 272.011719 26.503906 271.882812 24.792969 271.671875 23.082031 C 289.746094 17.488281 307.378906 14.003906 322.78125 13.242188 C 322.078125 28.632812 318.632812 46.339844 313.050781 64.507812 Z M 313.050781 64.507812 " fill-opacity="1" fill-rule="nonzero"/><path fill="#1fcdff" d="M 211.679688 81.652344 C 199.996094 81.652344 189.015625 86.199219 180.757812 94.457031 C 172.496094 102.710938 167.953125 113.691406 167.953125 125.375 C 167.953125 137.058594 172.496094 148.042969 180.757812 156.296875 C 189.015625 164.558594 199.996094 169.101562 211.679688 169.101562 C 223.363281 169.101562 234.34375 164.550781 242.601562 156.296875 C 250.863281 148.035156 255.40625 137.058594 255.40625 125.375 C 255.40625 113.691406 250.863281 102.710938 242.601562 94.457031 C 234.34375 86.199219 223.363281 81.652344 211.679688 81.652344 Z M 233.488281 147.191406 C 227.667969 153.015625 219.921875 156.21875 211.679688 156.21875 C 203.4375 156.21875 195.699219 153.007812 189.871094 147.191406 C 184.046875 141.363281 180.84375 133.625 180.84375 125.382812 C 180.84375 117.148438 184.046875 109.398438 189.871094 103.574219 C 195.691406 97.75 203.4375 94.546875 211.679688 94.546875 C 219.921875 94.546875 227.660156 97.753906 233.488281 103.574219 C 239.3125 109.398438 242.515625 117.140625 242.515625 125.382812 C 242.515625 133.617188 239.3125 141.363281 233.488281 147.191406 Z M 233.488281 147.191406 " fill-opacity="1" fill-rule="nonzero"/><path fill="#1fcdff" d="M 11.59375 205.996094 L 38.53125 179.058594 C 41.050781 176.539062 41.050781 172.464844 38.53125 169.945312 C 36.011719 167.425781 31.9375 167.425781 29.417969 169.945312 L 2.480469 196.882812 C -0.0390625 199.402344 -0.0390625 203.476562 2.480469 205.996094 C 3.738281 207.253906 5.386719 207.882812 7.039062 207.882812 C 8.6875 207.882812 10.335938 207.253906 11.59375 205.996094 Z M 11.59375 205.996094 " fill-opacity="1" fill-rule="nonzero"/><path fill="#1fcdff" d="M 71.597656 264.570312 C 69.078125 262.050781 65.003906 262.050781 62.484375 264.570312 L 20.796875 306.25 C 18.277344 308.769531 18.277344 312.84375 20.796875 315.363281 C 22.054688 316.621094 23.703125 317.253906 25.351562 317.253906 C 27.003906 317.253906 28.652344 316.621094 29.910156 315.363281 L 71.597656 273.679688 C 74.109375 271.167969 74.109375 267.089844 71.597656 264.570312 Z M 71.597656 264.570312 " fill-opacity="1" fill-rule="nonzero"/><path fill="#1fcdff" d="M 52.746094 216.847656 C 50.226562 214.328125 46.15625 214.328125 43.636719 216.847656 L 8.351562 252.132812 C 5.832031 254.652344 5.832031 258.722656 8.351562 261.242188 C 9.609375 262.5 11.257812 263.132812 12.90625 263.132812 C 14.558594 263.132812 16.207031 262.5 17.464844 261.242188 L 52.746094 225.960938 C 55.265625 223.445312 55.265625 219.367188 52.746094 216.847656 Z M 52.746094 216.847656 " fill-opacity="1" fill-rule="nonzero"/><path fill="#1fcdff" d="M 157.109375 297.636719 L 130.171875 324.574219 C 127.652344 327.09375 127.652344 331.164062 130.171875 333.683594 C 131.425781 334.941406 133.078125 335.574219 134.726562 335.574219 C 136.375 335.574219 138.027344 334.941406 139.28125 333.683594 L 166.222656 306.746094 C 168.742188 304.226562 168.742188 300.15625 166.222656 297.636719 C 163.699219 295.117188 159.628906 295.117188 157.109375 297.636719 Z M 157.109375 297.636719 " fill-opacity="1" fill-rule="nonzero"/><path fill="#1fcdff" d="M 110.207031 283.417969 L 74.921875 318.703125 C 72.402344 321.222656 72.402344 325.292969 74.921875 327.8125 C 76.179688 329.070312 77.828125 329.703125 79.480469 329.703125 C 81.128906 329.703125 82.777344 329.070312 84.035156 327.8125 L 119.316406 292.53125 C 121.839844 290.011719 121.839844 285.9375 119.316406 283.417969 C 116.796875 280.898438 112.726562 280.898438 110.207031 283.417969 Z M 110.207031 283.417969 " fill-opacity="1" fill-rule="nonzero"/></svg>