<svg xmlns="http://www.w3.org/2000/svg" xmlns:xlink="http://www.w3.org/1999/xlink" width="48" zoomAndPan="magnify" viewBox="0 0 36 36.000001" height="48" preserveAspectRatio="xMidYMid meet" version="1.0"><defs><g/><clipPath id="be07bf17da"><path d="M 0.488281 0 L 35.511719 0 L 35.511719 35.027344 L 0.488281 35.027344 Z M 0.488281 0 " clip-rule="nonzero"/></clipPath><clipPath id="85d87bb123"><path d="M 18 0 C 8.328125 0 0.488281 7.839844 0.488281 17.511719 C 0.488281 27.1875 8.328125 35.027344 18 35.027344 C 27.671875 35.027344 35.511719 27.1875 35.511719 17.511719 C 35.511719 7.839844 27.671875 0 18 0 Z M 18 0 " clip-rule="nonzero"/></clipPath><clipPath id="44905fe8f4"><path d="M 26 8 L 34 8 L 34 16 L 26 16 Z M 26 8 " clip-rule="nonzero"/></clipPath><clipPath id="4676d4e6ee"><path d="M 26.675781 7.523438 L 33.835938 8.929688 L 32.429688 16.089844 L 25.269531 14.683594 Z M 26.675781 7.523438 " clip-rule="nonzero"/></clipPath><clipPath id="2eda76f984"><path d="M 26.675781 7.523438 L 33.835938 8.929688 L 32.429688 16.089844 L 25.269531 14.683594 Z M 26.675781 7.523438 " clip-rule="nonzero"/></clipPath></defs><g clip-path="url(#be07bf17da)"><g clip-path="url(#85d87bb123)"><path fill="#1fcdff" d="M 0.488281 0 L 35.511719 0 L 35.511719 35.027344 L 0.488281 35.027344 Z M 0.488281 0 " fill-opacity="1" fill-rule="nonzero"/></g></g><g fill="#ffffff" fill-opacity="1"><g transform="translate(8.969594, 27.017479)"><g><path d="M 9.28125 0.203125 C 7.769531 0.203125 6.414062 -0.0390625 5.21875 -0.53125 C 4.03125 -1.019531 3.078125 -1.742188 2.359375 -2.703125 C 1.648438 -3.660156 1.273438 -4.816406 1.234375 -6.171875 L 6.578125 -6.171875 C 6.648438 -5.398438 6.910156 -4.8125 7.359375 -4.40625 C 7.816406 -4.007812 8.40625 -3.8125 9.125 -3.8125 C 9.875 -3.8125 10.460938 -3.984375 10.890625 -4.328125 C 11.316406 -4.671875 11.53125 -5.144531 11.53125 -5.75 C 11.53125 -6.257812 11.359375 -6.679688 11.015625 -7.015625 C 10.679688 -7.347656 10.265625 -7.617188 9.765625 -7.828125 C 9.265625 -8.046875 8.554688 -8.296875 7.640625 -8.578125 C 6.304688 -8.984375 5.21875 -9.390625 4.375 -9.796875 C 3.53125 -10.210938 2.804688 -10.820312 2.203125 -11.625 C 1.597656 -12.425781 1.296875 -13.472656 1.296875 -14.765625 C 1.296875 -16.679688 1.988281 -18.179688 3.375 -19.265625 C 4.757812 -20.359375 6.570312 -20.90625 8.8125 -20.90625 C 11.082031 -20.90625 12.910156 -20.359375 14.296875 -19.265625 C 15.679688 -18.179688 16.425781 -16.671875 16.53125 -14.734375 L 11.09375 -14.734375 C 11.0625 -15.398438 10.816406 -15.921875 10.359375 -16.296875 C 9.910156 -16.679688 9.332031 -16.875 8.625 -16.875 C 8.019531 -16.875 7.53125 -16.710938 7.15625 -16.390625 C 6.789062 -16.066406 6.609375 -15.601562 6.609375 -15 C 6.609375 -14.332031 6.921875 -13.8125 7.546875 -13.4375 C 8.171875 -13.070312 9.148438 -12.675781 10.484375 -12.25 C 11.816406 -11.789062 12.894531 -11.351562 13.71875 -10.9375 C 14.550781 -10.53125 15.269531 -9.9375 15.875 -9.15625 C 16.488281 -8.375 16.796875 -7.367188 16.796875 -6.140625 C 16.796875 -4.960938 16.492188 -3.894531 15.890625 -2.9375 C 15.296875 -1.976562 14.429688 -1.210938 13.296875 -0.640625 C 12.160156 -0.078125 10.820312 0.203125 9.28125 0.203125 Z M 9.28125 0.203125 "/></g></g></g><g clip-path="url(#44905fe8f4)"><g clip-path="url(#4676d4e6ee)"><g clip-path="url(#2eda76f984)"><path fill="#ffffff" d="M 29.039062 15.222656 C 29.125 15.242188 29.179688 15.324219 29.164062 15.40625 C 29.148438 15.484375 29.078125 15.535156 29 15.53125 L 28.980469 15.527344 L 28.574219 15.449219 C 28.492188 15.433594 28.4375 15.351562 28.453125 15.265625 C 28.46875 15.191406 28.539062 15.136719 28.613281 15.140625 L 28.632812 15.144531 Z M 29.527344 14.898438 C 29.609375 14.914062 29.664062 14.996094 29.648438 15.082031 C 29.632812 15.15625 29.5625 15.210938 29.488281 15.207031 L 29.464844 15.203125 L 28.25 14.964844 C 28.164062 14.945312 28.109375 14.867188 28.125 14.78125 C 28.140625 14.703125 28.210938 14.652344 28.289062 14.65625 L 28.308594 14.660156 Z M 29.808594 14.53125 C 29.890625 14.550781 29.949219 14.628906 29.929688 14.714844 C 29.914062 14.792969 29.847656 14.84375 29.769531 14.839844 L 29.75 14.835938 L 28.125 14.519531 C 28.042969 14.5 27.988281 14.417969 28.003906 14.335938 C 28.019531 14.257812 28.089844 14.207031 28.164062 14.210938 L 28.183594 14.214844 Z M 29.914062 9.707031 C 31.007812 9.921875 31.71875 10.980469 31.503906 12.074219 C 31.410156 12.539062 31.035156 12.988281 30.382812 13.429688 C 30.246094 13.519531 30.152344 13.65625 30.109375 13.8125 L 30.097656 13.855469 L 30.03125 14.207031 C 30.003906 14.339844 29.882812 14.425781 29.753906 14.414062 L 29.726562 14.410156 L 28.308594 14.132812 C 28.175781 14.105469 28.085938 13.984375 28.097656 13.855469 L 28.101562 13.828125 L 28.171875 13.480469 C 28.207031 13.304688 28.167969 13.125 28.070312 12.976562 C 27.632812 12.320312 27.457031 11.761719 27.546875 11.296875 C 27.761719 10.203125 28.820312 9.492188 29.914062 9.707031 Z M 27.378906 12.976562 C 27.425781 13.042969 27.410156 13.128906 27.355469 13.179688 L 27.339844 13.191406 L 26.824219 13.539062 C 26.753906 13.585938 26.65625 13.566406 26.609375 13.496094 C 26.5625 13.429688 26.578125 13.34375 26.632812 13.292969 L 26.648438 13.28125 L 27.164062 12.933594 C 27.234375 12.886719 27.332031 12.90625 27.378906 12.976562 Z M 31.242188 13.722656 L 31.253906 13.738281 L 31.601562 14.253906 C 31.648438 14.324219 31.628906 14.421875 31.558594 14.46875 C 31.492188 14.511719 31.40625 14.5 31.355469 14.441406 L 31.34375 14.425781 L 30.996094 13.910156 C 30.949219 13.839844 30.96875 13.742188 31.039062 13.695312 C 31.105469 13.652344 31.191406 13.664062 31.242188 13.722656 Z M 29.855469 10.011719 C 28.929688 9.828125 28.03125 10.429688 27.851562 11.355469 C 27.777344 11.726562 27.933594 12.210938 28.328125 12.804688 C 28.464844 13.003906 28.519531 13.25 28.484375 13.488281 L 28.476562 13.539062 L 28.417969 13.835938 L 29.734375 14.097656 L 29.796875 13.796875 C 29.839844 13.578125 29.957031 13.378906 30.125 13.234375 L 30.167969 13.203125 L 30.207031 13.171875 C 30.800781 12.773438 31.125 12.382812 31.199219 12.011719 C 31.378906 11.089844 30.777344 10.191406 29.855469 10.011719 Z M 26.859375 10.816406 C 26.945312 10.832031 27 10.914062 26.980469 11 C 26.96875 11.078125 26.898438 11.128906 26.820312 11.125 L 26.800781 11.121094 L 26.191406 11.003906 C 26.105469 10.984375 26.050781 10.902344 26.070312 10.820312 C 26.085938 10.742188 26.152344 10.691406 26.230469 10.695312 L 26.25 10.699219 Z M 32.945312 12.011719 C 33.03125 12.03125 33.085938 12.109375 33.070312 12.195312 C 33.054688 12.273438 32.984375 12.324219 32.90625 12.320312 L 32.886719 12.316406 L 32.277344 12.199219 C 32.195312 12.179688 32.140625 12.101562 32.15625 12.015625 C 32.171875 11.9375 32.242188 11.886719 32.316406 11.890625 L 32.335938 11.894531 Z M 29.996094 10.355469 C 30.640625 10.480469 31.0625 11.105469 30.933594 11.75 C 30.917969 11.835938 30.835938 11.890625 30.753906 11.875 C 30.667969 11.855469 30.613281 11.773438 30.628906 11.691406 C 30.722656 11.214844 30.414062 10.753906 29.9375 10.660156 C 29.851562 10.644531 29.796875 10.5625 29.816406 10.476562 C 29.832031 10.394531 29.914062 10.339844 29.996094 10.355469 Z M 27.78125 8.574219 L 27.796875 8.589844 L 28.140625 9.105469 C 28.1875 9.175781 28.171875 9.273438 28.097656 9.320312 C 28.035156 9.363281 27.949219 9.351562 27.898438 9.292969 L 27.882812 9.277344 L 27.539062 8.761719 C 27.492188 8.691406 27.507812 8.59375 27.582031 8.546875 C 27.644531 8.503906 27.730469 8.515625 27.78125 8.574219 Z M 32.53125 9.519531 C 32.574219 9.585938 32.5625 9.671875 32.503906 9.722656 L 32.488281 9.734375 L 31.972656 10.082031 C 31.902344 10.128906 31.804688 10.109375 31.757812 10.039062 C 31.714844 9.972656 31.726562 9.886719 31.78125 9.835938 L 31.800781 9.824219 L 32.316406 9.476562 C 32.386719 9.429688 32.480469 9.449219 32.53125 9.519531 Z M 30.214844 8.210938 C 30.292969 8.226562 30.347656 8.296875 30.339844 8.371094 L 30.339844 8.394531 L 30.21875 9 C 30.203125 9.085938 30.121094 9.140625 30.039062 9.125 C 29.960938 9.109375 29.90625 9.039062 29.914062 8.960938 L 29.914062 8.941406 L 30.035156 8.332031 C 30.050781 8.25 30.132812 8.195312 30.214844 8.210938 Z M 30.214844 8.210938 " fill-opacity="1" fill-rule="nonzero"/></g></g></g></svg>